<svg xmlns="http://www.w3.org/2000/svg" width="120" height="40" viewBox="0 0 120 40">
  <path fill="#fff" d="M59.64 13.95h-8.06v19.83h8.06c6.03 0 10.11-3.83 10.11-9.91 0-6.09-4.08-9.92-10.11-9.92zm.07 15.85h-3.93V17.93h3.93c3.77 0 6.09 2.37 6.09 5.93 0 3.57-2.32 5.94-6.09 5.94zM75.56 22.43c0-3.67 2.51-6.42 6.42-6.42 3.9 0 6.42 2.75 6.42 6.42s-2.52 6.42-6.42 6.42c-3.91 0-6.42-2.75-6.42-6.42zm8.64 0c0-1.77-.89-2.91-2.22-2.91-1.34 0-2.22 1.14-2.22 2.91s.88 2.91 2.22 2.91c1.33 0 2.22-1.14 2.22-2.91zM96.97 24.88h-.07c-.45.89-1.37 1.41-2.51 1.41-2.62 0-4.47-2.06-4.47-4.99 0-2.94 1.85-5 4.47-5 1.14 0 2.06.52 2.51 1.41h.07v-1.2h3.83v9.58h-3.83v-1.21zm-1.93-1.14c1.19 0 1.93-.89 1.93-2.44 0-1.54-.74-2.44-1.93-2.44s-1.93.9-1.93 2.44c0 1.55.74 2.44 1.93 2.44zM109.08 20.15l-2.06-.67c-.97-.31-1.41-.67-1.41-1.26 0-.74.74-1.19 1.85-1.19 1.26 0 2.29.52 2.66 1.41l3.02-1.33c-.89-2.14-3.17-3.1-5.61-3.1-3.24 0-5.53 1.63-5.53 4.03 0 1.93 1.19 3.24 3.76 3.98l2.06.67c1.04.37 1.48.82 1.48 1.41 0 .82-.81 1.33-2.14 1.33-1.63 0-2.81-.74-3.17-1.93l-3.24 1.33c.89 2.51 3.39 3.76 6.42 3.76 3.46 0 5.98-1.7 5.98-4.25-.01-1.93-1.27-3.24-4.07-4.19z"/>
  <path fill="#fff" d="M17.07 13.95v3.09h4.99v16.74h3.91V17.04h4.99v-3.09H17.07z"/>
  <path fill="#fff" d="M45.87 22.73c0-5.83-2.81-9-7.58-9-4.77 0-7.58 3.17-7.58 9s2.81 9 7.58 9c4.77 0 7.58-3.16 7.58-9zm-11.19 0c0-3.61 1.33-5.83 3.61-5.83s3.61 2.22 3.61 5.83-1.33 5.83-3.61 5.83-3.61-2.21-3.61-5.83z"/>
</svg> 